# Blender v2.73 (sub 9) OBJ File: 'Wood_Basket.blend'
# www.blender.org
mtllib Wood_Basket.mtl
o pivot_Cube
v 0.050000 -0.050000 0.050000
v 0.050000 0.050000 0.050000
v -0.050000 -0.050000 0.050000
v -0.050000 0.050000 0.050000
v 0.050000 -0.050000 -0.050000
v 0.050000 0.050000 -0.050000
v -0.050000 -0.050000 -0.050000
v -0.050000 0.050000 -0.050000
vn -0.000000 0.000000 1.000000
vn -1.000000 0.000000 -0.000000
vn 0.000000 0.000000 -1.000000
vn 1.000000 0.000000 0.000000
vn 0.000000 -1.000000 0.000000
vn 0.000000 1.000000 0.000000
usemtl None
s off
f 2//1 4//1 3//1 1//1
f 4//2 8//2 7//2 3//2
f 8//3 6//3 5//3 7//3
f 6//4 2//4 1//4 5//4
f 1//5 3//5 7//5 5//5
f 6//6 8//6 4//6 2//6
o basket_coll_Cylinder.001
v -0.919515 -0.501164 0.145637
v -1.066321 1.000000 0.168889
v -0.829507 -0.501164 -0.422655
v -0.961942 1.000000 -0.490134
v -0.422655 -0.501164 -0.829507
v -0.490134 0.966255 -0.961942
v 0.145637 -0.501164 -0.919515
v 0.168889 0.815022 -1.066321
v 0.658300 -0.501164 -0.658300
v 0.763402 0.639733 -0.763401
v 0.919515 -0.501164 -0.145637
v 1.066321 0.593189 -0.168889
v 0.829507 -0.501164 0.422655
v 0.961942 0.598750 0.490134
v 0.422655 -0.501164 0.829507
v 0.490134 0.774038 0.961942
v -0.145637 -0.501164 0.919515
v -0.168889 0.935429 1.066321
v -0.658301 -0.501164 0.658300
v -0.763402 0.989882 0.763401
v -0.897118 1.000000 -0.457104
v -0.994463 1.000000 0.157507
v -0.457104 0.966255 -0.897118
v 0.157507 0.789810 -0.994463
v 0.711957 0.639733 -0.711957
v 0.994463 0.590451 -0.157507
v 0.897118 0.598750 0.457105
v 0.457104 0.748826 0.897118
v -0.157508 0.937832 0.994463
v -0.711957 0.986230 0.711957
v -0.775804 -0.427402 -0.395292
v -0.859985 -0.427402 0.136208
v -0.395292 -0.427402 -0.775804
v 0.136208 -0.427402 -0.859985
v 0.615682 -0.427402 -0.615682
v 0.859985 -0.427402 -0.136208
v 0.775804 -0.427402 0.395292
v 0.395292 -0.427402 0.775804
v -0.136208 -0.427402 0.859986
v -0.615682 -0.427402 0.615681
vn -0.983300 -0.093800 -0.155700
vn -0.705700 -0.094800 -0.702100
vn -0.167800 -0.101000 -0.980600
vn 0.436600 -0.114300 -0.892400
vn 0.881800 -0.125500 -0.454600
vn 0.979500 -0.127800 0.155700
vn 0.690300 -0.118200 0.713800
vn 0.142300 -0.103700 0.984400
vn 0.887800 0.090800 -0.451200
vn -0.887400 -0.094100 0.451300
vn -0.455600 -0.096100 0.885000
vn 0.000000 -1.000000 0.000000
vn 0.000000 1.000000 0.000000
vn 0.037000 0.998600 -0.037000
vn 0.266700 0.954400 0.133800
vn 0.135700 0.954800 0.264400
vn 0.016100 0.997100 0.075000
vn -0.017900 0.999700 -0.013700
vn 0.047300 0.954800 -0.293400
vn 0.231200 0.953000 -0.195700
vn 0.074900 0.996800 0.028100
vn 0.031900 0.999500 0.004500
vn 0.455500 0.092800 -0.885400
vn -0.139300 0.101400 -0.985000
vn -0.691500 0.116800 -0.712900
vn -0.979700 0.125700 -0.156100
vn -0.881800 0.123300 0.455200
vn -0.438100 0.112600 0.891900
vn 0.170500 0.098700 0.980400
vn 0.706000 0.091400 0.702300
vn 0.983600 0.090300 0.155800
usemtl None
s off
f 9//7 10//7 12//7 11//7
f 11//8 12//8 14//8 13//8
f 13//9 14//9 16//9 15//9
f 15//10 16//10 18//10 17//10
f 17//11 18//11 20//11 19//11
f 19//12 20//12 22//12 21//12
f 21//13 22//13 24//13 23//13
f 23//14 24//14 26//14 25//14
f 30//15 38//15 48//15 40//15
f 27//16 28//16 10//16 9//16
f 25//17 26//17 28//17 27//17
f 9//18 11//18 13//18 15//18 17//18 19//18 21//18 23//18 25//18 27//18
f 30//19 29//19 12//19 10//19
f 29//20 31//20 14//20 12//20
f 31//21 32//21 16//21 14//21
f 32//22 33//22 18//22 16//22
f 33//23 34//23 20//23 18//23
f 34//24 35//24 22//24 20//24
f 35//25 36//25 24//25 22//25
f 36//26 37//26 26//26 24//26
f 37//27 38//27 28//27 26//27
f 38//28 30//28 10//28 28//28
f 39//19 40//19 48//19 47//19 46//19 45//19 44//19 43//19 42//19 41//19
f 38//29 37//29 47//29 48//29
f 37//30 36//30 46//30 47//30
f 36//31 35//31 45//31 46//31
f 35//32 34//32 44//32 45//32
f 34//33 33//33 43//33 44//33
f 33//34 32//34 42//34 43//34
f 32//35 31//35 41//35 42//35
f 31//36 29//36 39//36 41//36
f 29//37 30//37 40//37 39//37
o basket_mesh_Cylinder
v -0.936196 -0.500000 -0.000000
v -1.074249 1.038032 -0.000000
v -0.864932 -0.500000 -0.358267
v -0.992973 1.029348 -0.411284
v -0.661990 -0.500000 -0.661990
v -0.761521 1.004620 -0.759954
v -0.358267 -0.500000 -0.864932
v -0.415127 0.967610 -0.992927
v 0.000000 -0.500000 -0.936196
v -0.006528 0.923955 -1.074737
v 0.358267 -0.500000 -0.864932
v 0.402071 0.804223 -0.992927
v 0.661990 -0.500000 -0.661990
v 0.748465 0.665540 -0.759954
v 0.864932 -0.500000 -0.358267
v 0.979917 0.616925 -0.411284
v 0.936196 -0.500000 -0.000000
v 1.061193 0.608241 -0.000000
v 0.864932 -0.500000 0.358266
v 0.979917 0.616925 0.411284
v 0.661990 -0.500000 0.661990
v 0.748465 0.665540 0.759954
v 0.358267 -0.500000 0.864932
v 0.402071 0.804223 0.992927
v -0.000000 -0.500000 0.936196
v -0.006528 0.923955 1.074737
v -0.358267 -0.500000 0.864932
v -0.415128 0.967610 0.992927
v -0.661991 -0.500000 0.661990
v -0.761521 1.004620 0.759953
v -0.864932 -0.500000 0.358266
v -0.992974 1.029348 0.411283
v -1.062801 0.910494 -0.000000
v -0.982356 0.902530 -0.406888
v -0.753267 0.879852 -0.751830
v -0.410412 0.845911 -0.982314
v -0.005987 0.805876 -1.063249
v 0.398439 0.696073 -0.982313
v 0.741294 0.568890 -0.751830
v 0.970382 0.524306 -0.406888
v 1.050828 0.516342 -0.000000
v 0.970382 0.524306 0.406887
v 0.741294 0.568890 0.751830
v 0.398438 0.696073 0.982314
v -0.005987 0.805876 1.063249
v -0.410412 0.845911 0.982313
v -0.753268 0.879852 0.751830
v -0.982356 0.902530 0.406887
v -1.081823 0.974263 -0.000000
v -0.999951 0.965939 -0.414207
v -0.766797 0.942236 -0.765355
v -0.417859 0.906761 -0.999984
v -0.006257 0.864915 -1.082375
v 0.405344 0.750148 -0.999984
v 0.754282 0.617215 -0.765355
v 0.987436 0.570615 -0.414207
v 1.069308 0.562292 -0.000000
v 0.987436 0.570615 0.414207
v 0.754283 0.617215 0.765355
v 0.405344 0.750148 0.999984
v -0.006258 0.864915 1.082375
v -0.417859 0.906761 0.999984
v -0.766798 0.942236 0.765354
v -0.999951 0.965939 0.414206
v -0.841195 -0.407313 -0.000000
v -1.012915 1.030733 -0.000000
v -0.777121 -0.407298 -0.322185
v -0.936562 1.022058 -0.388094
v -0.594663 -0.407264 -0.595298
v -0.718915 0.997343 -0.717682
v -0.321619 -0.407225 -0.777749
v -0.392554 0.960321 -0.938905
v 0.000835 -0.407300 -0.841939
v -0.006382 0.916482 -1.017759
v 0.323562 -0.407179 -0.777759
v 0.381830 0.796744 -0.944822
v 0.596568 -0.406955 -0.595321
v 0.715231 0.658119 -0.727562
v 0.778945 -0.407023 -0.322437
v 0.938749 0.609271 -0.394474
v 0.843072 -0.407069 -0.000000
v 1.017052 0.600490 -0.000000
v 0.778945 -0.407023 0.322437
v 0.938749 0.609271 0.394474
v 0.596568 -0.406955 0.595321
v 0.715231 0.658119 0.727562
v 0.323562 -0.407179 0.777759
v 0.381830 0.796744 0.944822
v 0.000835 -0.407300 0.841939
v -0.006383 0.916482 1.017759
v -0.321619 -0.407225 0.777749
v -0.392554 0.960321 0.938905
v -0.594663 -0.407264 0.595298
v -0.718916 0.997343 0.717682
v -0.777122 -0.407298 0.322185
v -0.936562 1.022058 0.388093
v -0.999772 0.922865 -0.000000
v -0.924224 0.914925 -0.383379
v -0.708931 0.892294 -0.708808
v -0.386270 0.858366 -0.926966
v -0.003731 0.818681 -1.004782
v 0.380782 0.708507 -0.931180
v 0.708018 0.580611 -0.715736
v 0.927213 0.536110 -0.388357
v 1.004278 0.528202 -0.000000
v 0.927213 0.536110 0.388357
v 0.708018 0.580611 0.715736
v 0.380782 0.708507 0.931180
v -0.003731 0.818681 1.004782
v -0.386271 0.858366 0.926966
v -0.708931 0.892294 0.708807
v -0.924224 0.914925 0.383379
v -0.992223 0.979390 -0.000000
v -0.917352 0.971091 -0.380287
v -0.703950 0.947444 -0.703185
v -0.384009 0.912014 -0.919794
v -0.005518 0.869475 -0.996960
v 0.375574 0.754985 -0.924794
v 0.701733 0.622789 -0.711046
v 0.919483 0.575692 -0.385698
v 0.995959 0.567124 -0.000000
v 0.919483 0.575692 0.385698
v 0.701733 0.622789 0.711046
v 0.375574 0.754985 0.924794
v -0.005518 0.869475 0.996960
v -0.384010 0.912014 0.919794
v -0.703950 0.947444 0.703185
v -0.917353 0.971091 0.380287
vt 0.615525 0.946101
vt 0.617813 0.956133
vt 0.552337 0.971223
vt 0.549997 0.961346
vt 0.486366 0.981589
vt 0.484390 0.971722
vt 0.419897 0.987488
vt 0.418342 0.977798
vt 0.353243 0.989638
vt 0.352108 0.980151
vt 0.285467 0.977284
vt 0.284787 0.968593
vt 0.218171 0.959339
vt 0.217886 0.951587
vt 0.152048 0.952456
vt 0.152108 0.944954
vt 0.085470 0.949020
vt 0.085470 0.941366
vt 0.085470 0.480378
vt 0.085470 0.472725
vt 0.152048 0.469289
vt 0.152108 0.476791
vt 0.218171 0.462406
vt 0.217886 0.470158
vt 0.285468 0.444461
vt 0.284787 0.453153
vt 0.353244 0.432108
vt 0.352108 0.441595
vt 0.419898 0.434258
vt 0.418342 0.443948
vt 0.486367 0.440157
vt 0.484391 0.450024
vt 0.439168 0.676718
vt 0.482417 0.460205
vt 0.547585 0.470737
vt 0.495535 0.689161
vt 0.549998 0.460401
vt 0.552337 0.450524
vt 0.617813 0.465613
vt 0.615525 0.475646
vt 0.857858 0.399483
vt 0.911438 0.421677
vt 0.952447 0.462686
vt 0.974641 0.516266
vt 0.974641 0.574261
vt 0.952447 0.627842
vt 0.911438 0.668851
vt 0.857858 0.691045
vt 0.799862 0.691045
vt 0.746282 0.668851
vt 0.705273 0.627842
vt 0.683079 0.574261
vt 0.683079 0.516266
vt 0.705273 0.462686
vt 0.746282 0.421677
vt 0.799862 0.399483
vt 0.612258 0.486047
vt 0.551436 0.703688
vt 0.382417 0.666420
vt 0.416798 0.453961
vt 0.325317 0.658314
vt 0.351018 0.451365
vt 0.268081 0.652464
vt 0.284161 0.462231
vt 0.210856 0.649083
vt 0.217644 0.478402
vt 0.153538 0.648404
vt 0.152178 0.484584
vt 0.095504 0.650418
vt 0.086312 0.488087
vt 0.153538 0.773341
vt 0.152179 0.937161
vt 0.086312 0.933658
vt 0.095504 0.771327
vt 0.210857 0.772663
vt 0.217644 0.943343
vt 0.268081 0.769281
vt 0.284160 0.959514
vt 0.325317 0.763432
vt 0.351017 0.970380
vt 0.382417 0.755325
vt 0.416798 0.967784
vt 0.439169 0.745028
vt 0.482417 0.961541
vt 0.495536 0.732585
vt 0.547585 0.951009
vt 0.551437 0.718058
vt 0.612258 0.935700
vt 0.925832 0.060913
vt 0.928722 0.052567
vt 0.987289 0.075407
vt 0.983534 0.082920
vt 0.863288 0.046577
vt 0.865341 0.038151
vt 0.799027 0.039552
vt 0.800371 0.031133
vt 0.734788 0.038910
vt 0.735634 0.030822
vt 0.669236 0.052112
vt 0.669741 0.044668
vt 0.603030 0.073204
vt 0.602801 0.066469
vt 0.538601 0.089764
vt 0.537343 0.083509
vt 0.478489 0.107901
vt 0.476294 0.102411
vt 0.061650 0.226018
vt 0.058190 0.231378
vt 0.008297 0.191442
vt 0.012349 0.187136
vt 0.115546 0.265013
vt 0.112867 0.271196
vt 0.169437 0.308876
vt 0.167182 0.315988
vt 0.225606 0.345156
vt 0.223432 0.352993
vt 0.285621 0.368073
vt 0.283790 0.376400
vt 0.347994 0.385059
vt 0.346820 0.393651
vt 0.431894 0.178083
vt 0.411787 0.385543
vt 0.349128 0.376016
vt 0.381023 0.171501
vt 0.473198 0.395254
vt 0.473942 0.403621
vt 0.411078 0.403437
vt 0.411444 0.394612
vt 0.957653 0.876945
vt 0.937699 0.925124
vt 0.900831 0.961990
vt 0.852607 0.981972
vt 0.800365 0.981972
vt 0.752204 0.962017
vt 0.715354 0.925172
vt 0.695383 0.876949
vt 0.695383 0.824754
vt 0.715332 0.776614
vt 0.752194 0.739751
vt 0.800461 0.719763
vt 0.852661 0.719772
vt 0.900828 0.739728
vt 0.937698 0.776605
vt 0.957653 0.824791
vt 0.482922 0.181801
vt 0.473349 0.386603
vt 0.287416 0.359377
vt 0.330629 0.161844
vt 0.227579 0.337018
vt 0.280929 0.149010
vt 0.171536 0.301427
vt 0.232155 0.132870
vt 0.118323 0.258522
vt 0.184945 0.112961
vt 0.065214 0.220404
vt 0.139753 0.089040
vt 0.015960 0.181897
vt 0.097388 0.062217
vt 0.511900 0.255278
vt 0.479931 0.114098
vt 0.539863 0.096293
vt 0.561143 0.245824
vt 0.603238 0.080261
vt 0.611954 0.240106
vt 0.668464 0.059812
vt 0.663175 0.238860
vt 0.733645 0.047205
vt 0.714473 0.241694
vt 0.797514 0.048302
vt 0.765421 0.247943
vt 0.861034 0.055407
vt 0.815852 0.257403
vt 0.922831 0.069478
vt 0.865601 0.269900
vt 0.980508 0.091026
vt 0.914448 0.285118
vt 0.931535 0.043304
vt 0.992505 0.067287
vt 0.866890 0.028801
vt 0.800908 0.021912
vt 0.734846 0.021912
vt 0.667786 0.036522
vt 0.600807 0.059197
vt 0.535417 0.076779
vt 0.473109 0.096459
vt 0.053934 0.236936
vt 0.003155 0.195814
vt 0.108350 0.277233
vt 0.162380 0.322852
vt 0.219438 0.360996
vt 0.280914 0.385177
vt 0.344839 0.402920
vt 0.410306 0.413087
vt 0.475823 0.413087
vn -0.996700 -0.081400 0.000000
vn -0.661400 0.750000 0.000000
vn -0.601800 0.749400 -0.276100
vn -0.922500 -0.082200 -0.377000
vn -0.435400 0.747900 -0.501000
vn -0.710200 -0.084400 -0.698900
vn -0.196300 0.746900 -0.635200
vn -0.389600 -0.087100 -0.916800
vn 0.127700 0.760900 -0.636200
vn -0.010800 -0.077800 -0.996900
vn 0.432400 0.734900 -0.522400
vn 0.361900 -0.089500 -0.927900
vn 0.576100 0.728800 -0.370000
vn 0.686400 -0.114200 -0.718100
vn 0.613000 0.763600 -0.202900
vn 0.916600 -0.108200 -0.384900
vn 0.633700 0.773500 0.000000
vn 0.994600 -0.103700 0.000000
vn 0.613000 0.763600 0.202900
vn 0.916600 -0.108200 0.384900
vn 0.576100 0.728800 0.370000
vn 0.686400 -0.114200 0.718100
vn 0.432400 0.734900 0.522400
vn 0.361900 -0.089500 0.927900
vn 0.127700 0.760900 0.636200
vn -0.010800 -0.077800 0.996900
vn -0.196300 0.746900 0.635200
vn -0.389600 -0.087100 0.916800
vn -0.435400 0.747900 0.501000
vn -0.710200 -0.084400 0.698900
vn -0.507800 -0.699400 0.503000
vn -0.703500 -0.197400 0.682700
vn -0.909500 -0.193900 0.367800
vn -0.661800 -0.698600 0.271900
vn -0.922500 -0.082200 0.377000
vn -0.601800 0.749400 0.276100
vn -0.715800 -0.698300 0.000000
vn -0.661800 -0.698600 -0.271900
vn -0.507800 -0.699400 -0.503000
vn -0.276600 -0.700300 -0.658100
vn -0.006300 -0.701200 -0.712900
vn 0.262900 -0.703300 -0.660500
vn 0.496200 -0.705700 -0.505700
vn 0.653300 -0.706400 -0.272200
vn 0.707800 -0.706400 0.000000
vn 0.653300 -0.706400 0.272200
vn 0.496200 -0.705700 0.505700
vn 0.262900 -0.703300 0.660500
vn -0.006300 -0.701200 0.712900
vn -0.276600 -0.700300 0.658100
vn -0.981300 -0.192600 0.000000
vn -0.391600 -0.202000 0.897700
vn -0.037700 -0.213800 0.976100
vn 0.318100 -0.224000 0.921200
vn 0.659300 -0.232200 0.715100
vn 0.891200 -0.243700 0.382500
vn 0.969000 -0.246900 0.000000
vn 0.891200 -0.243700 -0.382500
vn 0.659300 -0.232200 -0.715100
vn 0.318100 -0.224000 -0.921200
vn -0.037700 -0.213800 -0.976100
vn -0.391600 -0.202000 -0.897700
vn -0.703500 -0.197400 -0.682700
vn -0.909500 -0.193900 -0.367800
vn 0.919200 0.134300 0.370100
vn 0.533600 0.826300 0.179900
vn 0.563100 0.826400 0.000000
vn 0.991100 0.133100 0.000000
vn 0.712700 0.137300 0.687900
vn 0.444300 0.826500 0.345600
vn 0.398400 0.139900 0.906500
vn 0.296100 0.826700 0.478400
vn 0.047300 0.158100 0.986300
vn 0.176800 0.819500 0.545000
vn -0.312200 0.163300 0.935900
vn 0.052100 0.803800 0.592600
vn -0.670700 0.158500 0.724600
vn -0.222600 0.829800 0.511800
vn -0.904500 0.174900 0.388900
vn -0.456000 0.851900 0.257600
vn -0.983700 0.179700 0.000000
vn -0.520200 0.854000 0.000000
vn -0.904500 0.174900 -0.388900
vn -0.456000 0.851900 -0.257600
vn -0.670700 0.158500 -0.724600
vn -0.222600 0.829800 -0.511800
vn -0.312200 0.163300 -0.935900
vn 0.052100 0.803800 -0.592600
vn 0.047300 0.158100 -0.986300
vn 0.176800 0.819500 -0.545000
vn 0.398400 0.139900 -0.906500
vn 0.296100 0.826700 -0.478400
vn 0.712700 0.137300 -0.687900
vn 0.444300 0.826500 -0.345600
vn 0.652400 0.709200 -0.267000
vn 0.924100 -0.007800 -0.381900
vn 0.707700 -0.007000 -0.706500
vn 0.501400 0.710400 -0.493900
vn 0.533600 0.826300 -0.179900
vn 0.919200 0.134300 -0.370100
vn 0.274500 0.711900 -0.646400
vn 0.011700 0.713800 -0.700200
vn -0.248500 0.718400 -0.649700
vn -0.477900 0.724000 -0.497500
vn -0.633500 0.726400 -0.266500
vn -0.686900 0.726700 0.000000
vn -0.633500 0.726400 0.266500
vn -0.477900 0.724000 0.497500
vn -0.248500 0.718400 0.649700
vn 0.011700 0.713800 0.700200
vn 0.274500 0.711900 0.646400
vn 0.501400 0.710400 0.493900
vn 0.652400 0.709200 0.267000
vn 0.705400 0.708800 0.000000
vn 0.999900 -0.008200 0.000000
vn 0.382400 -0.006900 -0.924000
vn -0.007700 -0.017500 -0.999800
vn -0.393900 -0.015300 -0.919000
vn -0.710700 -0.002300 -0.703500
vn -0.925000 -0.010600 -0.379700
vn -0.999800 -0.016100 0.000000
vn -0.925000 -0.010600 0.379700
vn -0.710700 -0.002300 0.703500
vn -0.393900 -0.015300 0.919000
vn -0.007700 -0.017500 0.999800
vn 0.382400 -0.006900 0.924000
vn 0.707700 -0.007000 0.706500
vn 0.924100 -0.007800 0.381900
usemtl Material
s 1
f 97/1/38 50/2/39 52/3/40 98/4/41
f 98/4/41 52/3/40 54/5/42 99/6/43
f 99/6/43 54/5/42 56/7/44 100/8/45
f 100/8/45 56/7/44 58/9/46 101/10/47
f 101/10/47 58/9/46 60/11/48 102/12/49
f 102/12/49 60/11/48 62/13/50 103/14/51
f 103/14/51 62/13/50 64/15/52 104/16/53
f 104/16/53 64/15/52 66/17/54 105/18/55
f 105/19/55 66/20/54 68/21/56 106/22/57
f 106/22/57 68/21/56 70/23/58 107/24/59
f 107/24/59 70/23/58 72/25/60 108/26/61
f 108/26/61 72/25/60 74/27/62 109/28/63
f 109/28/63 74/27/62 76/29/64 110/30/65
f 110/30/65 76/29/64 78/31/66 111/32/67
f 77/33/68 95/34/69 96/35/70 79/36/71
f 112/37/72 80/38/73 50/39/39 97/40/38
f 111/32/67 78/31/66 80/38/73 112/37/72
f 49/41/74 51/42/75 53/43/76 55/44/77 57/45/78 59/46/79 61/47/80 63/48/81 65/49/82 67/50/83 69/51/84 71/52/85 73/53/86 75/54/87 77/55/68 79/56/71
f 79/36/71 96/35/70 81/57/88 49/58/74
f 75/59/87 94/60/89 95/34/69 77/33/68
f 73/61/86 93/62/90 94/60/89 75/59/87
f 71/63/85 92/64/91 93/62/90 73/61/86
f 69/65/84 91/66/92 92/64/91 71/63/85
f 67/67/83 90/68/93 91/66/92 69/65/84
f 65/69/82 89/70/94 90/68/93 67/67/83
f 63/71/81 88/72/95 89/73/94 65/74/82
f 61/75/80 87/76/96 88/72/95 63/71/81
f 59/77/79 86/78/97 87/76/96 61/75/80
f 57/79/78 85/80/98 86/78/97 59/77/79
f 55/81/77 84/82/99 85/80/98 57/79/78
f 53/83/76 83/84/100 84/82/99 55/81/77
f 51/85/75 82/86/101 83/84/100 53/83/76
f 49/87/74 81/88/88 82/86/101 51/85/75
f 95/34/69 111/32/67 112/37/72 96/35/70
f 96/35/70 112/37/72 97/40/38 81/57/88
f 94/60/89 110/30/65 111/32/67 95/34/69
f 93/62/90 109/28/63 110/30/65 94/60/89
f 92/64/91 108/26/61 109/28/63 93/62/90
f 91/66/92 107/24/59 108/26/61 92/64/91
f 90/68/93 106/22/57 107/24/59 91/66/92
f 89/70/94 105/19/55 106/22/57 90/68/93
f 88/72/95 104/16/53 105/18/55 89/73/94
f 87/76/96 103/14/51 104/16/53 88/72/95
f 86/78/97 102/12/49 103/14/51 87/76/96
f 85/80/98 101/10/47 102/12/49 86/78/97
f 84/82/99 100/8/45 101/10/47 85/80/98
f 83/84/100 99/6/43 100/8/45 84/82/99
f 82/86/101 98/4/41 99/6/43 83/84/100
f 81/88/88 97/1/38 98/4/41 82/86/101
f 162/89/102 116/90/103 114/91/104 161/92/105
f 163/93/106 118/94/107 116/90/103 162/89/102
f 164/95/108 120/96/109 118/94/107 163/93/106
f 165/97/110 122/98/111 120/96/109 164/95/108
f 166/99/112 124/100/113 122/98/111 165/97/110
f 167/101/114 126/102/115 124/100/113 166/99/112
f 168/103/116 128/104/117 126/102/115 167/101/114
f 169/105/118 130/106/119 128/104/117 168/103/116
f 170/107/120 132/108/121 130/109/119 169/110/118
f 171/111/122 134/112/123 132/108/121 170/107/120
f 172/113/124 136/114/125 134/112/123 171/111/122
f 173/115/126 138/116/127 136/114/125 172/113/124
f 174/117/128 140/118/129 138/116/127 173/115/126
f 175/119/130 142/120/131 140/118/129 174/117/128
f 143/121/132 160/122/133 159/123/134 141/124/135
f 161/125/105 114/126/104 144/127/136 176/128/137
f 176/128/137 144/127/136 142/120/131 175/119/130
f 143/129/132 141/130/135 139/131/138 137/132/139 135/133/140 133/134/141 131/135/142 129/136/143 127/137/144 125/138/145 123/139/146 121/140/147 119/141/148 117/142/149 115/143/150 113/144/151
f 113/145/151 145/146/152 160/122/133 143/121/132
f 141/124/135 159/123/134 158/147/153 139/148/138
f 139/148/138 158/147/153 157/149/154 137/150/139
f 137/150/139 157/149/154 156/151/155 135/152/140
f 135/152/140 156/151/155 155/153/156 133/154/141
f 133/154/141 155/153/156 154/155/157 131/156/142
f 131/156/142 154/155/157 153/157/158 129/158/143
f 129/159/143 153/160/158 152/161/159 127/162/144
f 127/162/144 152/161/159 151/163/160 125/164/145
f 125/164/145 151/163/160 150/165/161 123/166/146
f 123/166/146 150/165/161 149/167/162 121/168/147
f 121/168/147 149/167/162 148/169/163 119/170/148
f 119/170/148 148/169/163 147/171/164 117/172/149
f 117/172/149 147/171/164 146/173/165 115/174/150
f 115/174/150 146/173/165 145/175/152 113/176/151
f 160/122/133 176/128/137 175/119/130 159/123/134
f 145/146/152 161/125/105 176/128/137 160/122/133
f 159/123/134 175/119/130 174/117/128 158/147/153
f 158/147/153 174/117/128 173/115/126 157/149/154
f 157/149/154 173/115/126 172/113/124 156/151/155
f 156/151/155 172/113/124 171/111/122 155/153/156
f 155/153/156 171/111/122 170/107/120 154/155/157
f 154/155/157 170/107/120 169/110/118 153/157/158
f 153/160/158 169/105/118 168/103/116 152/161/159
f 152/161/159 168/103/116 167/101/114 151/163/160
f 151/163/160 167/101/114 166/99/112 150/165/161
f 150/165/161 166/99/112 165/97/110 149/167/162
f 149/167/162 165/97/110 164/95/108 148/169/163
f 148/169/163 164/95/108 163/93/106 147/171/164
f 147/171/164 163/93/106 162/89/102 146/173/165
f 146/173/165 162/89/102 161/92/105 145/175/152
f 52/177/40 50/178/39 114/91/104 116/90/103
f 54/179/42 52/177/40 116/90/103 118/94/107
f 56/180/44 54/179/42 118/94/107 120/96/109
f 58/181/46 56/180/44 120/96/109 122/98/111
f 60/182/48 58/181/46 122/98/111 124/100/113
f 62/183/50 60/182/48 124/100/113 126/102/115
f 64/184/52 62/183/50 126/102/115 128/104/117
f 66/185/54 64/184/52 128/104/117 130/106/119
f 68/186/56 66/187/54 130/109/119 132/108/121
f 70/188/58 68/186/56 132/108/121 134/112/123
f 72/189/60 70/188/58 134/112/123 136/114/125
f 74/190/62 72/189/60 136/114/125 138/116/127
f 76/191/64 74/190/62 138/116/127 140/118/129
f 78/192/66 76/191/64 140/118/129 142/120/131
f 80/193/73 78/192/66 142/120/131 144/127/136
f 50/194/39 80/193/73 144/127/136 114/126/104
