# Blender v2.73 (sub 9) OBJ File: 'Wood_Stairs_Corner.blend'
# www.blender.org
mtllib Wood_Stairs_Corner.mtl
o pivot_Cube
v -0.025000 -0.025000 0.025000
v -0.025000 0.025000 0.025000
v -0.025000 -0.025000 -0.025000
v -0.025000 0.025000 -0.025000
v 0.025000 -0.025000 0.025000
v 0.025000 0.025000 0.025000
v 0.025000 -0.025000 -0.025000
v 0.025000 0.025000 -0.025000
vn -1.000000 0.000000 0.000000
vn 0.000000 0.000000 -1.000000
vn 1.000000 0.000000 0.000000
vn 0.000000 0.000000 1.000000
vn 0.000000 -1.000000 0.000000
vn 0.000000 1.000000 0.000000
usemtl None
s off
f 2//1 4//1 3//1 1//1
f 4//2 8//2 7//2 3//2
f 8//3 6//3 5//3 7//3
f 6//4 2//4 1//4 5//4
f 1//5 3//5 7//5 5//5
f 6//6 8//6 4//6 2//6
o Stairs_coll_Circle.000
v -1.406965 -0.794220 0.578287
v 0.000004 -0.794220 -0.828652
v 0.000004 1.179478 -0.828652
v -0.200860 1.179478 -0.623175
v -1.406965 -0.563933 0.578287
v 1.406942 -0.794220 0.578318
v -0.844184 -0.563933 0.798981
v -0.844184 -0.794220 0.798981
v 0.200865 1.179478 -0.623171
v -0.281402 -0.794220 0.908587
v 0.281379 -0.794220 0.908593
v 0.844161 -0.794220 0.799000
v 1.406942 -0.563933 0.578318
v -0.281402 -0.563933 0.908587
v 0.281379 -0.563933 0.908593
v 0.844161 -0.563933 0.799000
v -0.127393 1.179478 -0.558672
v -0.033048 1.179478 -0.523019
v 0.033053 1.179478 -0.523018
v 0.127398 1.179478 -0.558670
vt 0.000000 0.000000
vn -0.707900 0.001300 -0.706300
vn 0.000000 1.000000 -0.000000
vn -0.707900 -0.001300 0.706300
vn 0.304700 0.667000 0.679900
vn 0.365100 0.000000 0.931000
vn -0.365100 0.000000 0.931000
vn -0.191200 0.000000 0.981600
vn -0.000000 0.000000 1.000000
vn 0.191100 0.000000 0.981600
vn -0.304700 0.667000 0.679900
vn -0.165200 0.643600 0.747300
vn -0.000000 0.634600 0.772800
vn 0.165200 0.643600 0.747400
vn 0.000000 -1.000000 0.000000
usemtl Material
s off
f 9/1/7 13/1/7 12/1/7 11/1/7 10/1/7
f 11/1/8 12/1/8 25/1/8 26/1/8 27/1/8 28/1/8 17/1/8
f 14/1/9 21/1/9 17/1/9 11/1/9 10/1/9
f 24/1/10 21/1/10 17/1/10 28/1/10
f 24/1/11 20/1/11 14/1/11 21/1/11
f 13/1/12 9/1/12 16/1/12 15/1/12
f 15/1/13 16/1/13 18/1/13 22/1/13
f 22/1/14 18/1/14 19/1/14 23/1/14
f 23/1/15 19/1/15 20/1/15 24/1/15
f 13/1/16 15/1/16 25/1/16 12/1/16
f 15/1/17 22/1/17 26/1/17 25/1/17
f 22/1/18 23/1/18 27/1/18 26/1/18
f 23/1/19 24/1/19 28/1/19 27/1/19
f 9/1/20 10/1/20 14/1/20 20/1/20 19/1/20 18/1/20 16/1/20
o Stairs_mesh_Circle.004
v -1.050938 -0.810127 0.756225
v -0.356272 -0.810127 0.914777
v 0.356257 -0.810127 0.914777
v 1.050922 -0.810127 0.756223
v 0.894887 -0.810127 0.310303
v 0.252921 -0.810127 -0.002349
v 0.303361 -0.810127 0.445315
v -0.303377 -0.810127 0.445316
v -0.252938 -0.810127 -0.002349
v -0.894904 -0.810127 0.310304
v -0.707105 -0.810127 -0.125836
v -1.414230 -0.810127 0.581273
v -1.060711 -0.810127 0.227763
v 1.060714 -0.810127 0.227780
v 1.414208 -0.810127 0.581274
v 0.000004 -0.810127 -0.832930
v 0.707112 -0.810127 -0.125822
v -0.204990 -0.810127 -0.427901
v 0.205046 -0.810127 -0.427257
v 0.353559 -0.810127 -0.479375
v -0.353565 -0.810127 -0.479367
v 0.000004 1.189873 -0.832930
v -0.204990 1.189873 -0.427901
v 0.205046 1.189873 -0.427257
v 0.353559 1.189873 -0.479375
v -0.353565 1.189873 -0.479367
v 0.707112 0.689873 -0.125822
v 0.707112 0.189873 -0.125822
v 0.707112 -0.310127 -0.125822
v 1.060714 -0.310127 0.227780
v 1.060714 0.189873 0.227780
v -0.707105 0.689873 -0.125836
v -0.707105 0.189873 -0.125836
v -0.707105 -0.310127 -0.125836
v -0.353565 -0.310127 -0.479367
v -0.353565 0.189873 -0.479367
v -0.353565 0.689873 -0.479367
v 0.000004 0.689873 -0.832930
v 0.000004 0.189873 -0.832930
v 0.000004 -0.310127 -0.832930
v 0.353559 -0.310127 -0.479375
v 0.353559 0.189873 -0.479375
v 0.353559 0.689873 -0.479375
v 1.414208 -0.310127 0.581274
v -1.060711 0.189873 0.227763
v -1.060711 -0.310127 0.227763
v -1.414230 -0.310127 0.581273
v -1.050938 -0.310127 0.756225
v 1.050922 -0.310127 0.756223
v 0.356257 -0.310127 0.914777
v -0.356272 -0.310127 0.914777
v -0.204990 0.689873 -0.427901
v 0.205046 0.689873 -0.427257
v 0.353559 0.689873 -0.479375
v -0.353565 0.689873 -0.479367
v 0.252921 0.189882 -0.002349
v -0.252938 0.189882 -0.002349
v -0.707105 0.189882 -0.125836
v 0.707112 0.189882 -0.125822
v 0.894887 -0.310127 0.310303
v 0.303361 -0.310127 0.445315
v -0.303377 -0.310127 0.445316
v -0.894904 -0.310127 0.310304
v -1.060711 -0.310127 0.227763
v 1.060714 -0.310127 0.227780
v 0.252921 0.689873 -0.002349
v -0.252938 0.689873 -0.002349
v -0.707105 0.689873 -0.125836
v 0.707112 0.689873 -0.125822
v 0.894887 0.189873 0.310303
v 0.303361 0.189873 0.445315
v -0.303377 0.189873 0.445316
v -0.894904 0.189873 0.310304
v -1.060711 0.189873 0.227763
v 1.060714 0.189873 0.227780
v -0.356272 -0.810127 0.914777
v -1.050938 -0.810127 0.756225
v 0.356257 -0.810127 0.914777
v 1.050922 -0.810127 0.756223
v 1.414208 -0.810127 0.581274
v 1.414208 -0.810127 0.581274
v -1.414230 -0.810127 0.581273
v -1.414230 -0.810127 0.581273
v -1.060711 -0.810127 0.227763
v -0.353565 -0.810127 -0.479367
v 0.000004 -0.810127 -0.832930
v 0.000004 -0.810127 -0.832930
v -0.707105 -0.810127 -0.125836
v 1.060714 -0.810127 0.227780
v 0.353559 -0.810127 -0.479375
v 0.707112 -0.810127 -0.125822
v -0.353565 1.189873 -0.479367
v -0.353565 1.189873 -0.479367
v 0.000004 1.189873 -0.832930
v 0.000004 1.189873 -0.832930
v 0.353559 1.189873 -0.479375
v 0.353559 1.189873 -0.479375
v -0.204990 1.189873 -0.427901
v 0.205046 1.189873 -0.427257
v 0.000004 -0.310127 -0.832930
v -1.414230 -0.310127 0.581273
v -1.414230 -0.310127 0.581273
v 0.000004 0.689873 -0.832930
v 0.000004 0.189873 -0.832930
v 1.414208 -0.310127 0.581274
v 1.414208 -0.310127 0.581274
v -1.050938 -0.310127 0.756225
v -0.356272 -0.310127 0.914777
v 0.356257 -0.310127 0.914777
v 1.050922 -0.310127 0.756223
v -0.204990 0.689873 -0.427901
v 0.205046 0.689873 -0.427257
v 0.353559 0.689873 -0.479375
v -0.353565 0.689873 -0.479367
v -0.707105 0.189882 -0.125836
v -0.252938 0.189882 -0.002349
v 0.252921 0.189882 -0.002349
v 0.707112 0.189882 -0.125822
v -0.894904 -0.310127 0.310304
v -0.303377 -0.310127 0.445316
v 0.303361 -0.310127 0.445315
v 0.894887 -0.310127 0.310303
v -1.060711 -0.310127 0.227763
v 1.060714 -0.310127 0.227780
v -0.707105 0.689873 -0.125836
v -0.252938 0.689873 -0.002349
v 0.252921 0.689873 -0.002349
v 0.707112 0.689873 -0.125822
v -0.894904 0.189873 0.310304
v -0.303377 0.189873 0.445316
v 0.303361 0.189873 0.445315
v 0.894887 0.189873 0.310303
v -1.060711 0.189873 0.227763
v 1.060714 0.189873 0.227780
vt 0.119506 0.240680
vt 0.148328 0.114406
vt 0.229386 0.142769
vt 0.204844 0.250296
vt 0.148327 0.496477
vt 0.119506 0.370203
vt 0.204844 0.360587
vt 0.229386 0.468114
vt 0.286219 0.259465
vt 0.286219 0.351419
vt 0.180130 0.048367
vt 0.244390 0.112629
vt 0.180129 0.562515
vt 0.244387 0.498257
vt 0.363458 0.342716
vt 0.363575 0.268181
vt 0.437201 0.305444
vt 0.372932 0.369712
vt 0.372931 0.241173
vt 0.308667 0.176907
vt 0.308664 0.433980
vt 0.690014 0.757387
vt 0.727412 0.831065
vt 0.764550 0.757377
vt 0.663034 0.766906
vt 0.791574 0.766686
vt 0.103616 0.978970
vt 0.012727 0.978970
vt 0.012727 0.888081
vt 0.103616 0.888081
vt 0.671284 0.888076
vt 0.762173 0.888076
vt 0.762174 0.978968
vt 0.671285 0.978968
vt 0.561834 0.241628
vt 0.561834 0.332517
vt 0.528166 0.332517
vt 0.528166 0.241628
vt 0.672126 0.241628
vt 0.672126 0.332517
vt 0.782418 0.241628
vt 0.782418 0.332517
vt 0.892709 0.241627
vt 0.892709 0.332516
vt 0.855865 0.444471
vt 0.773303 0.422027
vt 0.782472 0.340651
vt 0.889999 0.365193
vt 0.598792 0.444474
vt 0.564654 0.365193
vt 0.672180 0.340651
vt 0.681349 0.422027
vt 0.662764 0.006462
vt 0.662764 0.097350
vt 0.533242 0.097351
vt 0.533242 0.006462
vt 0.534514 0.380197
vt 0.792286 0.006462
vt 0.792286 0.097350
vt 0.926379 0.241627
vt 0.926379 0.332516
vt 0.921808 0.006462
vt 0.921808 0.097350
vt 0.995104 0.006461
vt 0.995104 0.097350
vt 0.920142 0.380194
vt 0.681279 0.452496
vt 0.681279 0.543383
vt 0.595724 0.543383
vt 0.595724 0.452496
vt 0.459945 0.097350
vt 0.459945 0.006462
vt 0.773233 0.452496
vt 0.773233 0.543383
vt 0.858791 0.452496
vt 0.858791 0.543383
vt 0.398616 0.615413
vt 0.489505 0.615413
vt 0.489505 0.706291
vt 0.398616 0.706292
vt 0.764632 0.632264
vt 0.773335 0.555026
vt 0.855896 0.577470
vt 0.791628 0.641738
vt 0.690096 0.632382
vt 0.681380 0.555026
vt 0.398618 0.888078
vt 0.489507 0.888077
vt 0.489507 0.978970
vt 0.398618 0.978970
vt 0.580396 0.888077
vt 0.580396 0.978969
vt 0.489506 0.797193
vt 0.398617 0.797194
vt 0.580394 0.706291
vt 0.580395 0.797192
vt 0.663089 0.641737
vt 0.598823 0.577473
vt 0.376283 0.706290
vt 0.285394 0.706290
vt 0.285394 0.615417
vt 0.376283 0.615417
vt 0.376283 0.888081
vt 0.285394 0.888081
vt 0.285394 0.797192
vt 0.376283 0.797192
vt 0.194505 0.888081
vt 0.194505 0.797192
vt 0.103616 0.797192
vt 0.376283 0.978970
vt 0.285394 0.978970
vt 0.194505 0.978970
vt 0.671284 0.797192
vt 0.194505 0.706291
vt 0.661427 0.742203
vt 0.661427 0.651314
vt 0.690010 0.651314
vt 0.690010 0.742203
vt 0.764545 0.651314
vt 0.764545 0.742203
vt 0.984450 0.169582
vt 0.920193 0.233839
vt 0.890050 0.218838
vt 0.918413 0.137780
vt 0.782523 0.194296
vt 0.792138 0.108958
vt 0.672231 0.194296
vt 0.662616 0.108958
vt 0.564705 0.218838
vt 0.536341 0.137779
vt 0.534565 0.233842
vt 0.470303 0.169582
vt 0.793156 0.651314
vt 0.793156 0.742203
vn 0.000000 -1.000000 0.000000
vn 0.000000 1.000000 0.000000
vn 0.707100 0.000000 -0.707100
vn -0.707100 0.000000 -0.707100
vn -0.336400 0.000000 0.941700
vn -0.445600 0.000000 0.895200
vn -0.111900 0.000000 0.993700
vn 0.111900 0.000000 0.993700
vn 0.336400 0.000000 0.941700
vn -0.330300 0.000000 0.943900
vn 0.445500 0.000000 0.895300
vn 0.330300 0.000000 0.943900
vn 0.433900 0.000000 0.901000
vn -0.132300 0.000000 0.991200
vn -0.262400 0.000000 0.965000
vn -0.433900 0.000000 0.901000
vn 0.132300 0.000000 0.991200
vn 0.262300 0.000000 0.965000
vn -0.327300 0.000000 0.944900
vn -0.166700 0.000000 0.986000
vn 0.167100 0.000000 0.985900
vn 0.331100 0.000000 0.943600
usemtl Material_Stairs_Quarter_DIFF.png
s 1
f 30/2/21 29/3/21 38/4/21 36/5/21
f 32/6/21 31/7/21 35/8/21 33/9/21
f 31/7/21 30/2/21 36/5/21 35/8/21
f 35/8/21 36/5/21 37/10/21 34/11/21
f 29/3/21 40/12/21 41/13/21 38/4/21
f 43/14/21 32/6/21 33/9/21 42/15/21
f 47/16/21 46/17/21 44/18/21
f 48/19/21 47/16/21 44/18/21
f 46/17/21 49/20/21 44/18/21
f 38/4/21 41/13/21 39/21/21
f 34/11/21 37/10/21 46/17/21 47/16/21
f 45/22/21 34/11/21 47/16/21 48/19/21
f 37/10/21 39/21/21 49/20/21 46/17/21
f 36/5/21 38/4/21 39/21/21 37/10/21
f 33/9/21 35/8/21 34/11/21 45/22/21
f 42/15/21 33/9/21 45/22/21
f 52/23/22 50/24/22 51/25/22
f 53/26/22 50/24/22 52/23/22
f 51/25/22 50/24/22 54/27/22
f 66/28/23 122/29/23 124/30/23 71/31/23
f 65/32/24 120/33/24 123/34/24 131/35/24
f 91/36/25 101/37/25 102/38/26 92/39/26
f 90/40/27 100/41/27 101/37/25 91/36/25
f 89/42/28 99/43/28 100/41/27 90/40/27
f 88/44/29 98/45/29 99/43/28 89/42/28
f 87/46/22 84/47/22 159/48/22 160/49/22
f 86/50/22 157/51/22 158/52/22 85/53/22
f 104/54/27 79/55/27 76/56/30 105/57/30
f 161/58/22 157/51/22 86/50/22
f 106/59/28 78/60/28 79/55/27 104/54/27
f 93/61/31 103/62/31 98/45/29 88/44/29
f 107/63/32 77/64/32 78/60/28 106/59/28
f 108/65/33 72/66/33 77/64/32 107/63/32
f 162/67/22 87/46/22 160/49/22
f 144/68/34 95/69/34 96/70/35 143/71/35
f 105/57/30 76/56/30 75/72/36 110/73/36
f 145/74/37 94/75/37 95/69/34 144/68/34
f 146/76/38 97/77/38 94/75/37 145/74/37
f 111/78/24 129/79/24 74/80/24 112/81/24
f 81/82/22 155/83/22 156/84/22 82/85/22
f 80/86/22 154/87/22 155/83/22 81/82/22
f 113/88/24 63/89/24 68/90/24 114/91/24
f 63/89/24 64/92/24 67/93/24 68/90/24
f 64/92/24 65/32/24 131/35/24 67/93/24
f 112/81/24 74/80/24 62/94/24 116/95/24
f 74/80/24 73/96/24 61/97/24 62/94/24
f 83/98/22 153/99/22 154/87/22 80/86/22
f 117/100/23 58/101/23 133/102/23 109/103/23
f 118/104/23 69/105/23 57/106/23 119/107/23
f 69/105/23 70/108/23 56/109/23 57/106/23
f 70/108/23 71/31/23 55/110/23 56/109/23
f 115/111/23 128/112/23 69/105/23 118/104/23
f 128/112/23 132/113/23 70/108/23 69/105/23
f 132/113/23 66/28/23 71/31/23 70/108/23
f 116/95/24 62/94/24 63/89/24 113/88/24
f 62/94/24 61/97/24 64/92/24 63/89/24
f 61/97/24 60/114/24 65/32/24 64/92/24
f 119/107/23 57/106/23 58/101/23 117/100/23
f 57/106/23 56/109/23 59/115/23 58/101/23
f 121/116/39 142/117/39 139/118/40 126/119/40
f 126/119/40 139/118/40 140/120/41 127/121/41
f 134/122/22 152/123/22 150/124/22 138/125/22
f 138/125/22 150/124/22 149/126/22 137/127/22
f 137/127/22 149/126/22 148/128/22 136/129/22
f 136/129/22 148/128/22 147/130/22 135/131/22
f 135/131/22 147/130/22 151/132/22 130/133/22
f 84/47/22 85/53/22 158/52/22 159/48/22
f 127/121/41 140/120/41 141/134/42 125/135/42
